<svg xmlns="http://www.w3.org/2000/svg" xmlns:xlink="http://www.w3.org/1999/xlink" aria-hidden="true" role="img" class="iconify iconify--logos" width="31.88" height="32" preserveAspectRatio="xMidYMid meet" viewBox="0 0 256 257"><defs><linearGradient id="IconifyId1813088fe1fbc01fb466" x1="-.828%" x2="57.636%" y1="7.652%" y2="78.411%"><stop offset="0%" stop-color="#41D1FF"></stop><stop offset="100%" stop-color="#BD34FE"></stop></linearGradient><linearGradient id="IconifyId1813088fe1fbc01fb467" x1="43.376%" x2="50.316%" y1="2.242%" y2="89.03%"><stop offset="0%" stop-color="#FFBD4F"></stop><stop offset="100%" stop-color="#FF9640"></stop></linearGradient></defs><path fill="url(#IconifyId1813088fe1fbc01fb466)" d="M255.153 37.938L134.897 252.976c-2.483 4.44-8.862 4.466-11.382.048L.875 37.958c-2.746-4.814 1.371-10.67 6.827-9.673l119.718 21.734a6.7 6.7 0 0 0 2.414 0l118.867-21.66c5.438-.992 9.52 4.796 6.852 9.579Z"></path><path fill="url(#IconifyId1813088fe1fbc01fb467)" d="M185.432.063L96.44 17.501a3.26 3.26 0 0 0-2.614 3.014l-5.474 92.456a3.26 3.26 0 0 0 3.988 3.378l24.76-5.72a3.26 3.26 0 0 1 3.868 3.868l-7.373 36.073a3.26 3.26 0 0 0 4.156 3.814l15.308-4.649a3.26 3.26 0 0 1 4.156 3.814l-11.698 56.621c-.734 3.56 3.998 5.49 5.953 2.421l.826-1.297l71.655-142.079c1.197-2.375-.54-5.106-3.17-4.864l-25.504 2.416a3.26 3.26 0 0 1-3.696-4.064L189.35 3.44A3.26 3.26 0 0 0 185.432.063Z"></path></svg>